<svg width="210" height="312" xmlns="http://www.w3.org/2000/svg" xmlns:xlink="http://www.w3.org/1999/xlink" xml:space="preserve" overflow="hidden"><defs><clipPath id="clip0"><rect x="535" y="138" width="210" height="312"/></clipPath></defs><g clip-path="url(#clip0)" transform="translate(-535 -138)"><path d="M-2090 1312C-2119.98 1312-2140.63 1290.63-2140.63 1260.37-2140.63 1230.11-2120 1208.75-2090 1208.75-2060 1208.75-2039.37 1230.12-2039.37 1260.38-2039.37 1290.65-2060.04 1312-2090 1312ZM-2090 1225.8C-2108.36 1225.8-2120.69 1239.71-2120.69 1260.37-2120.69 1281.02-2108.36 1294.94-2090 1294.94-2071.64 1294.94-2059.31 1281.02-2059.31 1260.37-2059.31 1239.71-2071.66 1225.82-2090 1225.82Z" fill="#2E2E2D" transform="matrix(1.00025 0 0 1 2929.25 -892.012)"/><path d="M-1454.52 1341.49-1539.27 1341.49-1539.27 1212.8-1514.64 1212.8-1514.64 1319.6-1454.52 1319.6Z" fill="#2E2E2D" transform="matrix(1.00025 0 0 1 2600.01 -894.236)"/><path d="M-1299.85 1290.2C-1299.85 1311.16-1286.98 1321.46-1272.09 1321.46-1257.01 1321.46-1244.14 1311.16-1244.14 1290.2L-1244.14 1212.8-1219.14 1212.8-1219.14 1294.06C-1219.14 1322.18-1242.86 1343.32-1272.09 1343.32-1301.13 1343.32-1324.85 1322.18-1324.85 1294.06L-1324.85 1212.8-1299.84 1212.8Z" fill="#2E2E2D" transform="matrix(1.00025 0 0 1 2482.62 -894.236)"/><path d="M-938.8 1341.49-968.212 1341.49-995.604 1293.14-996.34 1293.14-1024.47 1341.49-1052.78 1341.49-1011.42 1274.58-1048.74 1212.81-1020.61 1212.81-996.344 1256.56-995.608 1256.56-970.056 1212.81-942.856 1212.81-980.176 1274.41Z" fill="#2E2E2D" transform="matrix(1.00025 0 0 1 2333.66 -894.236)"/><path d="M-721.052 1341.11C-759.476 1341.11-785.948 1313.72-785.948 1274.93-785.948 1236.14-759.476 1208.75-721.052 1208.75-682.628 1208.75-656.16 1236.14-656.16 1274.93-656.16 1313.72-682.636 1341.11-721.052 1341.11ZM-721.052 1230.62C-744.584 1230.62-760.392 1248.46-760.392 1274.93-760.392 1301.4-744.58 1319.23-721.052 1319.23-697.524 1319.23-681.712 1301.4-681.712 1274.93-681.712 1248.46-697.524 1230.62-721.052 1230.62Z" fill="#2E2E2D" transform="matrix(1.00025 0 0 1 2187.58 -892.012)"/><path d="M-1766.69 1328.82-1766.69 1404.99-1742.06 1404.99-1742.06 1350.19-1688.75 1350.19-1688.75 1328.8Z" fill="#2E2E2D" transform="matrix(1.00025 0 0 1 2724.52 -957.736)"/><path d="M0 0 131.616 0 131.616 21.876-2.68555e-06 21.876Z" fill="#2E2E2D" transform="matrix(1.00025 0 0 1 907.098 318.572)"/><path d="M0 0 132.22 0 132.22 21.876 1.2207e-06 21.876Z" fill="#2E2E2D" transform="matrix(1.00025 0 0 1 1344.91 249.36)"/><path d="M-1405.14 935.924C-1420.43 944.374-1437.68 948.623-1455.14 948.24-1495.58 948.24-1523.71 921.04-1523.71 882.06-1523.71 843.26-1495.03 815.88-1457.34 815.88-1422.42 815.88-1407.34 837.94-1404.22 845.48L-1424.81 855.96C-1431.35 844.193-1443.89 837.037-1457.35 837.392-1480.7 837.392-1498.34 855.792-1498.34 882.064-1498.34 908.536-1480.7 926.552-1455.88 926.552-1446.59 926.716-1437.35 925.086-1428.68 921.752L-1428.68 885.536-1405.15 885.536Z" fill="#2E2E2D" transform="matrix(1.00025 0 0 1 2591.49 -676.976)"/><path d="M-1175.86 897.336C-1175.86 918.292-1162.99 928.588-1148.1 928.588-1133.02 928.588-1120.16 918.296-1120.16 897.336L-1120.16 819.94-1095.16 819.94-1095.16 901.2C-1095.16 929.328-1118.87 950.468-1148.1 950.468-1177.15 950.468-1200.86 929.328-1200.86 901.2L-1200.86 819.94-1175.86 819.94Z" fill="#2E2E2D" transform="matrix(1.00025 0 0 1 2414.74 -679.2)"/><path d="M-1729.74 957.128-1673.31 957.128-1673.31 935.564-1754.38 935.564-1754.38 1011.91-1670.18 1011.91-1670.18 990.036-1729.75 990.036Z" fill="#2E2E2D" transform="matrix(1.00025 0 0 1 2717.78 -742.484)"/><path d="M-831.332 892-831.332 872-887.768 872-887.768 841.852-829.676 841.852-829.676 819.976-912.4 819.976-912.4 892Z" fill="#2E2E2D" transform="matrix(1.00025 0 0 1 2256.81 -679.2)"/><path d="M-1994.53 854.144C-1994.53 844.46-1983.69 842.408-1972.75 842.312L-1972.75 820.632C-1998.75 820.948-2019.72 833.48-2019.72 855.8-2019.72 902.492-1950.04 884.844-1950.04 910.6-1950.04 921.264-1959.6 929.168-1976.14 929.168-1992.87 929.168-2011.26 917.772-2011.26 917.772L-2021.18 937.444C-2007.55 945.952-1991.85 950.591-1975.78 950.864-1942.32 950.864-1924.3 931.008-1924.3 910.42-1924.31 860.764-1994.53 877.308-1994.53 854.144Z" fill="#2E2E2D" transform="matrix(1.00025 0 0 1 2863.85 -679.576)"/><path d="M0 0 131.572 0 131.572 21.876 6.22559e-06 21.876Z" fill="#2E2E2D" transform="matrix(1.00025 0 0 1 914.832 140.744)"/><path d="M-2614.97 980.272-2653.93 980.272-2653.93 958.056-2660.61 958.056-2660.61 980.272-2699.57 980.272-2699.57 1181.76-2660.61 1181.76-2660.61 1203.97-2653.93 1203.97-2653.93 1181.76-2614.97 1181.76Z" fill="#399E53" transform="matrix(1.00025 0 0 1 3235.26 -754.796)"/><path d="M-2335.3 842.232-2374.26 842.232-2374.26 815.704-2380.94 815.704-2380.94 842.232-2419.9 842.232-2419.9 1043.72-2380.94 1043.72-2380.94 1070.24-2374.26 1070.24-2374.26 1043.72-2335.3 1043.72Z" fill="#28852F" transform="matrix(1.00025 0 0 1 3082.14 -676.88)"/><path d="M-2475.14 908.648-2514.1 908.648-2514.1 882.12-2520.78 882.12-2520.78 908.648-2559.74 908.648-2559.74 1110.13-2520.78 1110.13-2520.78 1136.66-2514.1 1136.66-2514.1 1110.13-2475.14 1110.13Z" fill="#1A5526" transform="matrix(1.00025 0 0 1 3158.7 -713.232)"/></g></svg>