<svg xmlns="http://www.w3.org/2000/svg" width="249" height="77.588" viewBox="0 0 249 77.588"><defs><style>.a{fill:#2e2e2d;}.b{fill:#399e53;}.c{fill:#28852f;}.d{fill:#1a5526;}</style></defs><g transform="translate(674.895 -203.926)"><g transform="translate(-611.644 203.946)"><g transform="translate(0 44.458)"><path class="a" d="M-522.5,328c-7.494,0-12.658-5.343-12.658-12.908S-530,302.187-522.5,302.187s12.658,5.343,12.658,12.909S-515.009,328-522.5,328Zm0-21.55c-4.59,0-7.673,3.478-7.673,8.642s3.084,8.642,7.673,8.642,7.673-3.478,7.673-8.642S-517.914,306.454-522.5,306.454Z" transform="translate(535.161 -302.187)"/><path class="a" d="M-363.631,335.373h-21.187V303.2h6.158v26.7h15.029Z" transform="translate(452.871 -302.743)"/><path class="a" d="M-324.962,322.551c0,5.239,3.217,7.813,6.94,7.813,3.769,0,6.986-2.574,6.986-7.813V303.2h6.25v20.314c0,7.032-5.929,12.317-13.236,12.317-7.261,0-13.19-5.285-13.19-12.317V303.2h6.251Z" transform="translate(423.531 -302.743)"/><path class="a" d="M-234.7,335.373h-7.353l-6.848-12.087h-.184l-7.032,12.087h-7.078l10.341-16.729-9.33-15.442h7.032l6.066,10.938h.184l6.388-10.938h6.8l-9.33,15.4Z" transform="translate(386.299 -302.743)"/><path class="a" d="M-180.263,335.277c-9.606,0-16.224-6.848-16.224-16.545s6.618-16.545,16.224-16.545,16.223,6.848,16.223,16.545S-170.659,335.277-180.263,335.277Zm0-27.621c-5.883,0-9.835,4.458-9.835,11.076s3.953,11.076,9.835,11.076,9.835-4.458,9.835-11.076S-174.381,307.656-180.263,307.656Z" transform="translate(349.789 -302.187)"/><path class="a" d="M-441.673,332.206v19.042h6.158v-13.7h13.328v-5.347Z" transform="translate(483.991 -318.618)"/><rect class="a" width="32.904" height="5.469" transform="translate(29.75 0.459)"/></g><g transform="translate(13.518)"><rect class="a" width="33.055" height="5.469" transform="translate(125.658 27.614)"/><path class="a" d="M-351.285,233.981a24.717,24.717,0,0,1-12.5,3.079c-10.11,0-17.142-6.8-17.142-16.545,0-9.7,7.17-16.545,16.591-16.545,8.732,0,12.5,5.515,13.282,7.4l-5.148,2.62a9.035,9.035,0,0,0-8.135-4.642c-5.837,0-10.249,4.6-10.249,11.168,0,6.618,4.412,11.122,10.616,11.122a18.064,18.064,0,0,0,6.8-1.2v-9.054h5.883Z" transform="translate(437.224 -203.97)"/><path class="a" d="M-293.964,224.334c0,5.239,3.217,7.813,6.939,7.813,3.769,0,6.986-2.573,6.986-7.813V204.985h6.25V225.3c0,7.032-5.929,12.317-13.237,12.317-7.261,0-13.19-5.285-13.19-12.317V204.985h6.251Z" transform="translate(393.046 -204.526)"/><path class="a" d="M-432.436,239.282h14.109v-5.391h-20.268v19.087h21.049v-5.469h-14.891Z" transform="translate(468.788 -220.347)"/><path class="a" d="M-207.833,223v-5h-14.109v-7.537h14.523v-5.469H-228.1V223Z" transform="translate(353.575 -204.526)"/><path class="a" d="M-498.633,213.536c0-2.421,2.711-2.934,5.446-2.958v-5.42c-6.5.079-11.742,3.212-11.742,8.792,0,11.673,17.419,7.261,17.419,13.7,0,2.666-2.39,4.642-6.526,4.642-4.182,0-8.778-2.849-8.778-2.849l-2.482,4.918a22.158,22.158,0,0,0,11.352,3.355c8.365,0,12.868-4.964,12.868-10.111C-481.077,215.191-498.633,219.327-498.633,213.536Z" transform="translate(505.297 -204.62)"/><rect class="a" width="32.893" height="5.469" transform="translate(18.165 0.46)"/></g></g><g transform="translate(-674.895 203.926)"><path class="b" d="M-653.743,245.068h-9.74v-5.554h-1.67v5.554h-9.74v50.371h9.74v5.554h1.67v-5.554h9.74Z" transform="translate(674.895 -223.405)"/><path class="c" d="M-583.825,210.558h-9.74v-6.632h-1.67v6.632h-9.741v50.371h9.741v6.632h1.67v-6.632h9.74Z" transform="translate(636.625 -203.926)"/><path class="d" d="M-618.784,227.162h-9.74v-6.632h-1.67v6.632h-9.74v50.371h9.74v6.632h1.67v-6.632h9.74Z" transform="translate(655.76 -213.014)"/></g></g></svg>